<?xml version="1.0"?>
<svg width="1000" height="860" xmlns="http://www.w3.org/2000/svg" xmlns:svg="http://www.w3.org/2000/svg" version="1.1" xml:space="preserve">
 <g class="layer">
  <title>Layer 1</title>
  <g id="svg_4" transform="matrix(1 0 0 1 0 0)">
   <g id="svg_5">
    <path fill="#272727" d="m365.11,859.09l-242.85,0l-121.42,-210.31l121.42,-210.31l242.85,0l121.42,210.32l-121.42,210.3zm-232.36,-18.15l221.87,0l110.94,-192.15l-110.94,-192.16l-221.87,0l-110.94,192.15l110.94,192.16z" id="svg_6"/>
   </g>
  </g>
  <line fill="none" id="svg_7" stroke="#000000" stroke-width="5" x1="-368.66" x2="-368.66" y1="-29.69" y2="-30.69"/>
  <g id="svg_9">
   <g id="svg_10">
    <path fill="#272727" d="m621.05,419.86l-242.85,0l-121.42,-210.31l121.42,-210.31l242.85,0l121.42,210.32l-121.42,210.3zm-232.36,-18.15l221.87,0l110.94,-192.15l-110.94,-192.16l-221.87,0l-110.94,192.15l110.94,192.16z" id="svg_11"/>
   </g>
  </g>
  <g id="svg_18">
   <g id="svg_19">
    <path fill="#272727" d="m877.98,859.33l-242.85,0l-121.42,-210.31l121.42,-210.31l242.85,0l121.42,210.32l-121.42,210.3zm-232.36,-18.15l221.87,0l110.94,-192.15l-110.94,-192.16l-221.87,0l-110.94,192.15l110.94,192.16z" id="svg_20"/>
   </g>
  </g>
  <g id="svg_30" transform="matrix(1 0 0 1 0 0)">
   <g id="svg_31">
    <path fill="#272727" d="m1120.61,419.98l-242.85,0l-121.42,-210.31l121.42,-210.31l242.85,0l121.42,210.32l-121.42,210.3zm-232.36,-18.15l221.87,0l110.94,-192.15l-110.94,-192.16l-221.87,0l-110.94,192.15l110.94,192.16z" id="svg_32"/>
   </g>
  </g>
  <g id="svg_33">
   <g id="svg_34">
    <path fill="#272727" d="m122.24,419.98l-242.85,0l-121.42,-210.31l121.42,-210.31l242.85,0l121.42,210.32l-121.42,210.3zm-232.36,-18.15l221.87,0l110.94,-192.15l-110.94,-192.16l-221.87,0l-110.94,192.15l110.94,192.16z" id="svg_35"/>
   </g>
  </g>
 </g>
</svg>